<?xml version="1.0" encoding="utf-8"?>
<?xml-stylesheet type="text/xsl" href="rss1.xsl"?>
<rss version="2.0" xmlns:atom="http://www.w3.org/2005/Atom" xmlns:content="http://purl.org/rss/1.0/modules/content/" xmlns:dc="http://purl.org/dc/elements/1.1/" xmlns:media="http://search.yahoo.com/mrss/">
<channel>
 <title>Getty</title>
 <link>http://www.gettyimg.com/</link>
 <atom:link href="http://www.gettyimg.com/" rel="self" type="application/rss+xml" />

 
                <item>
                <title><![CDATA[【Albums (lossless)】FLAC - Playboi Carti - Whole Lotta Red (Vinyl rip) [FLAC 24bit-96khz]]]></title>
                <link><![CDATA[https://sharemania.us/threads/playboi-carti-whole-lotta-red-vinyl-rip-flac-24bit-96khz.229468/]]></link>
                <description><![CDATA[<article>
<blockquote class="messageText SelectQuoteContainer ugc baseHtml">
<img src="https://a1.mzstatic.com/r40/Music115/v4/ba/1e/05/ba1e058e-5637-e53c-563c-f5b9a1a6c344/20UM1IM18331.rgb.jpg" class="bbCodeImage LbImage" alt="[​IMG]" data-url="https://a1.mzstatic.com/r40/Music115/v4/ba/1e/05/ba1e058e-5637-e53c-563c-f5b9a1a6c344/20UM1IM18331.rgb.jpg" style=""> <br>
<br>
Artist: Playboi Carti<br>
Album: Whole Lotta Red<br>
Release date: December 25, 2020<br>
Genre: Hip-Hop/Rap<br>
<br>
<div class="bbCodeBlock bbCodeCode">
<div class="type">Code:</div>
<pre>foobar2000 1.6.4 / Dynamic Range Meter 1.1.1
log date: 2021-09-26 20:19:28

--------------------------------------------------------------------------------
Analyzed: Playboi Carti / Whole Lotta Red
--------------------------------------------------------------------------------

DR         Peak         RMS     Duration Track
--------------------------------------------------------------------------------
DR10      -2.09 dB   -14.67 dB      3:14 01-Rockstar Made
DR10      -1.88 dB   -15.29 dB      2:00 02-Go2DaMoon
DR9       -1.05 dB   -11.86 dB      3:39 03-Stop Breathing
DR10      -2.68 dB   -14.51 dB      2:33 04-Beno!
DR10      -3.14 dB   -13.99 dB      1:33 05-JumpOutTheHouse
DR9       -2.86 dB   -12.46 dB      5:13 06-M3tamorphosis
DR11      -3.25 dB   -16.38 dB      2:45 07-Slay3r
DR11      -2.23 dB   -14.51 dB      1:29 08-No Sl33p
DR8       -2.79 dB   -11.58 dB      1:30 09-New Tank
DR10      -1.63 dB   -13.16 dB      3:26 10-Teen X
DR10      -1.75 dB   -13.70 dB      1:59 11-Meh
DR9       -3.06 dB   -12.88 dB      2:04 12-Vamp Anthem
DR11      -3.86 dB   -16.50 dB      1:57 13-New N3on
DR12      -2.03 dB   -16.02 dB      3:18 14-Control
DR10      -0.19 dB   -12.18 dB      3:50 15-Punk Monk
DR10      -2.35 dB   -13.51 dB      1:43 16-On That Time
DR11      -0.84 dB   -14.91 dB      3:14 17-King Vamp
DR9       -3.57 dB   -13.12 dB      1:49 18-Place
DR11      -3.22 dB   -15.72 dB      3:13 19-Sky
DR11      -2.90 dB   -16.98 dB      2:46 20-Over
DR11      -3.07 dB   -15.69 dB      2:15 21-ILoveUIHateU
DR10      -2.02 dB   -13.75 dB      2:11 22-Die4Guy
DR11      -1.54 dB   -14.89 dB      2:10 23-Not Playing
DR9       -2.55 dB   -14.93 dB      3:25 24-F33l Lik3 Dyin
--------------------------------------------------------------------------------

Number of tracks:  24
Official DR value: DR10

Samplerate:        96000 Hz
Channels:          2
Bits per sample:   24
Bitrate:           2842 kbps
Codec:             FLAC
================================================================================

</pre>
</div>
<div class="bbCodeBlock bbCodeVfcHH HiddenContent">
<div class="attribution type">Hidden Content:</div>
<blockquote>You must reply before you can see the hidden data contained here.</blockquote>
</div>
<div class="messageTextEndMarker">&nbsp;</div>
</blockquote>
</article>]]></description>
                <author><![CDATA[FuzzScuzz]]></author>
                </item>

                </channel></rss>